<?xml version="1.0" standalone="no"?>
<!DOCTYPE svg PUBLIC "-//W3C//DTD SVG 20010904//EN"
 "http://www.w3.org/TR/2001/REC-SVG-20010904/DTD/svg10.dtd">
<svg version="1.0" xmlns="http://www.w3.org/2000/svg"
 width="1024.000000pt" height="1024.000000pt" viewBox="0 0 1024.000000 1024.000000"
 preserveAspectRatio="xMidYMid meet">
<metadata>
Created by potrace 1.14, written by Peter Selinger 2001-2017
</metadata>
<g transform="translate(0.000000,1024.000000) scale(0.100000,-0.100000)"
fill="#18181b" stroke="none">
<path d="M0 5120 l0 -5120 5120 0 5120 0 0 5120 0 5120 -5120 0 -5120 0 0
-5120z m6159 4557 c52 -89 126 -218 166 -287 81 -141 201 -348 282 -490 31
-52 66 -113 78 -135 13 -22 46 -80 75 -130 29 -49 63 -108 75 -130 20 -34 60
-104 145 -250 10 -16 43 -75 75 -130 32 -55 91 -157 131 -227 41 -71 107 -185
148 -255 40 -71 98 -171 128 -223 90 -157 169 -293 189 -325 41 -65 269 -469
269 -476 0 -5 -19 -19 -42 -32 -24 -14 -189 -109 -368 -212 -179 -103 -344
-198 -368 -212 -23 -13 -215 -123 -425 -245 -210 -122 -422 -244 -472 -273
-49 -29 -151 -87 -225 -130 -265 -152 -396 -228 -435 -250 -34 -20 -115 -66
-250 -145 -31 -18 -132 -76 -355 -205 -69 -40 -157 -91 -196 -113 -39 -23 -76
-42 -82 -42 -6 0 -21 19 -35 43 -54 94 -177 308 -232 402 -32 55 -66 114 -75
130 -9 17 -52 91 -95 165 -43 74 -103 178 -133 230 -30 52 -62 109 -72 125 -9
17 -52 90 -94 163 -42 72 -110 192 -153 265 -42 72 -100 174 -130 225 -54 93
-82 143 -258 447 -54 94 -131 226 -170 295 -40 69 -130 224 -200 345 -70 121
-139 240 -153 265 -14 25 -34 59 -44 75 -24 41 -23 47 15 69 17 10 46 26 62
36 17 10 89 51 160 92 148 86 264 152 450 260 969 560 1615 934 1635 944 14 8
214 124 445 258 231 134 425 244 430 245 6 0 52 -72 104 -162z m-5006 -1160
c121 -83 195 -134 377 -260 52 -36 145 -100 205 -141 155 -106 541 -371 662
-455 l101 -71 -13 -37 c-14 -39 -69 -210 -170 -528 -31 -99 -67 -211 -80 -250
-13 -38 -47 -144 -76 -235 -29 -91 -71 -223 -94 -295 -23 -71 -59 -184 -80
-250 -21 -66 -40 -122 -41 -123 -1 -2 -137 89 -301 201 -364 251 -397 274
-500 345 -45 31 -213 147 -373 257 -161 110 -294 203 -296 206 -4 7 32 124
126 414 26 83 83 258 125 390 42 132 87 272 99 310 13 39 47 144 76 235 28 91
65 206 82 255 16 50 31 96 33 103 3 6 7 12 11 12 3 0 60 -37 127 -83z m7790
-1103 c3 -72 15 -257 26 -410 77 -1041 79 -1072 59 -1079 -26 -8 -209 -76
-363 -135 -88 -34 -185 -70 -215 -82 -163 -60 -444 -166 -470 -177 -14 -5 -68
-26 -120 -45 -52 -19 -147 -55 -210 -79 -63 -24 -117 -43 -119 -41 -4 4 -11
92 -36 459 l-7 100 69 39 c37 21 114 65 170 97 57 33 105 59 108 59 3 0 5 -20
5 -43 0 -101 13 -197 26 -197 8 0 42 11 76 24 35 14 108 41 163 62 55 20 134
50 175 66 41 16 98 37 125 47 28 10 96 35 153 56 l102 39 0 47 c0 26 -6 130
-14 231 -8 100 -20 276 -27 391 -8 135 -16 207 -23 207 -6 0 -78 -25 -161 -56
-207 -77 -236 -87 -239 -83 -2 2 -42 74 -89 159 l-85 155 46 18 c26 10 108 41
182 69 74 28 164 62 200 76 36 13 88 33 115 43 28 10 120 44 205 77 100 38
157 55 161 48 4 -6 9 -70 12 -142z m-8406 -1708 c43 -13 128 -38 188 -56 61
-17 137 -40 170 -50 33 -10 110 -32 170 -50 61 -17 128 -37 150 -45 22 -7 135
-41 250 -75 116 -34 237 -70 270 -80 33 -10 110 -33 170 -50 61 -17 137 -40
170 -50 33 -10 110 -33 170 -50 61 -17 144 -42 185 -55 71 -21 130 -39 335
-100 50 -15 117 -35 150 -45 33 -10 110 -33 170 -50 61 -17 137 -40 170 -50
33 -10 110 -33 170 -50 61 -17 144 -42 185 -55 41 -12 91 -27 110 -32 29 -7
36 -14 42 -43 9 -44 47 -319 59 -420 4 -41 17 -138 28 -215 31 -213 69 -493
77 -557 l6 -57 -94 -118 c-52 -65 -120 -151 -152 -192 -63 -79 -76 -80 -76 -8
0 21 -11 113 -25 205 -30 204 -69 493 -86 625 -6 53 -15 97 -19 97 -5 0 -37
-45 -71 -100 -35 -55 -91 -143 -124 -195 -33 -52 -141 -223 -240 -380 -286
-454 -245 -402 -355 -451 -52 -23 -151 -67 -220 -97 -69 -30 -199 -87 -290
-127 -230 -101 -411 -181 -502 -220 -43 -19 -78 -37 -78 -40 0 -4 42 -19 93
-34 50 -15 119 -36 152 -46 33 -10 110 -33 170 -50 61 -17 137 -40 170 -50 33
-10 110 -32 170 -50 61 -18 144 -43 185 -55 41 -12 125 -37 185 -55 61 -18
166 -49 235 -70 69 -21 141 -43 160 -48 34 -10 69 -20 330 -97 69 -21 157 -46
195 -57 39 -11 117 -44 175 -75 58 -31 164 -87 237 -125 146 -77 133 -60 153
-203 18 -133 19 -145 11 -145 -4 0 -34 8 -67 19 -32 10 -102 31 -154 46 -52
15 -129 38 -170 50 -41 12 -124 37 -185 55 -60 18 -137 40 -170 50 -33 10
-109 33 -170 50 -60 17 -137 40 -170 50 -33 10 -100 30 -150 45 -49 15 -128
38 -175 52 -151 45 -233 70 -330 98 -52 15 -129 38 -170 50 -41 13 -124 38
-185 55 -60 17 -137 40 -170 50 -33 10 -107 32 -165 49 -58 17 -158 46 -222
66 -328 98 -484 145 -589 175 l-76 22 -27 196 c-49 352 -75 536 -81 587 -3 28
-15 111 -25 185 -11 74 -31 221 -45 325 -14 105 -36 269 -50 365 -13 96 -36
261 -50 365 -14 105 -36 269 -50 365 -50 360 -123 897 -133 983 -10 79 -14 77
95 43z m6720 -642 c65 -25 179 -70 253 -99 74 -29 178 -69 230 -90 52 -20 133
-52 180 -70 112 -44 442 -173 605 -236 72 -28 150 -59 175 -69 25 -11 88 -36
140 -56 52 -20 147 -56 210 -81 63 -25 178 -69 255 -99 77 -30 156 -61 175
-69 170 -68 319 -125 326 -125 5 0 15 -4 23 -9 15 -10 29 15 -275 -466 -90
-143 -225 -357 -300 -475 -75 -118 -196 -309 -269 -425 -152 -240 -347 -547
-420 -665 -27 -44 -121 -191 -207 -327 -87 -137 -188 -296 -225 -355 -38 -59
-126 -200 -198 -313 -71 -113 -141 -223 -155 -245 -14 -22 -87 -139 -163 -260
l-138 -220 -187 96 c-103 53 -200 104 -217 114 -16 9 -115 61 -220 115 -104
54 -221 114 -260 135 -80 43 -230 121 -460 240 -88 45 -182 95 -210 110 -27
15 -131 69 -230 120 -99 51 -254 132 -345 180 -91 48 -250 131 -355 185 -104
54 -212 110 -240 125 -27 15 -117 62 -200 105 -82 43 -195 101 -250 130 -55
29 -158 83 -230 120 -71 37 -161 85 -200 105 -38 20 -129 68 -202 105 -115 60
-130 71 -120 85 7 9 416 520 909 1137 l897 1120 58 16 c32 8 121 32 198 52 77
20 160 42 185 49 25 8 92 26 150 41 58 15 143 38 190 51 47 13 130 35 185 50
55 14 143 37 195 51 52 14 131 35 175 48 44 12 127 34 185 49 58 16 132 36
165 46 33 10 68 18 77 19 10 1 70 -20 135 -45z"/>
<path d="M5615 9171 c-6 -5 -68 -43 -140 -84 -119 -67 -235 -134 -495 -284
-52 -31 -108 -63 -125 -73 -29 -17 -189 -109 -270 -155 -39 -22 -188 -109
-250 -145 -16 -10 -88 -51 -160 -92 -71 -41 -175 -101 -230 -133 -55 -32 -156
-90 -225 -130 -184 -105 -200 -116 -195 -125 6 -10 224 -138 395 -232 143 -79
349 -181 496 -246 182 -80 212 -92 225 -92 8 0 218 367 479 837 256 460 479
861 497 892 18 31 32 59 33 64 0 10 -24 9 -35 -2z"/>
<path d="M5904 8883 c-75 -137 -310 -558 -521 -937 -211 -378 -383 -692 -383
-696 0 -3 24 -14 53 -22 28 -9 99 -31 157 -48 387 -118 840 -201 1305 -240
139 -11 792 -14 798 -2 5 7 -15 43 -188 342 -40 69 -97 168 -127 220 -361 626
-477 827 -517 895 -26 44 -132 227 -236 408 -103 180 -192 327 -196 327 -4 0
-69 -111 -145 -247z"/>
<path d="M3526 7513 c-3 -3 -2 -11 3 -17 5 -6 44 -72 86 -146 74 -129 167
-291 205 -355 10 -16 43 -75 75 -130 31 -55 65 -113 75 -130 9 -16 52 -91 95
-165 43 -74 102 -175 130 -225 159 -275 215 -372 280 -485 215 -372 261 -450
267 -450 3 0 17 19 30 43 14 23 82 137 153 252 70 116 136 224 145 240 10 17
75 125 145 240 256 420 318 526 311 533 -4 4 -71 23 -149 43 -214 54 -281 74
-490 143 -452 150 -875 341 -1313 592 -23 13 -44 20 -48 17z"/>
<path d="M5875 6572 c-27 -42 -72 -115 -100 -162 -29 -47 -67 -110 -85 -140
-17 -30 -44 -75 -59 -100 -62 -100 -382 -627 -397 -653 -8 -16 -13 -31 -10
-34 3 -3 56 24 118 60 471 271 697 401 1148 662 283 164 534 309 558 323 24
13 40 28 35 32 -4 5 -145 10 -313 13 -242 4 -351 10 -529 31 -123 15 -235 29
-248 31 -12 3 -34 7 -47 10 -21 4 -30 -5 -71 -73z"/>
<path d="M1212 8008 c-25 -68 -53 -153 -80 -238 -17 -52 -58 -182 -92 -288
-34 -106 -59 -196 -56 -199 4 -4 55 10 114 29 598 203 754 257 759 261 10 10
-7 25 -100 88 -50 35 -115 79 -143 99 -28 19 -87 59 -130 89 -44 30 -121 83
-171 118 -91 63 -93 64 -101 41z"/>
<path d="M1950 7220 c-75 -25 -848 -289 -862 -295 -10 -4 -18 -10 -18 -14 0
-3 63 -49 140 -101 225 -153 350 -238 433 -296 43 -30 84 -57 91 -60 15 -6 32
40 120 321 32 99 65 205 76 235 10 30 28 87 40 125 13 39 25 76 27 83 6 13
-10 14 -47 2z"/>
<path d="M870 5203 c0 -10 9 -79 19 -153 11 -74 31 -218 45 -320 14 -102 37
-270 51 -375 61 -443 75 -550 100 -727 52 -387 77 -568 101 -731 13 -93 24
-172 24 -178 0 -20 -9 -23 365 141 61 27 169 74 240 105 72 32 148 65 170 75
40 18 192 84 253 111 19 8 95 41 169 74 l136 61 41 66 c22 37 88 141 146 232
58 92 116 184 130 206 216 346 360 574 396 628 24 37 44 72 44 79 0 7 -15 16
-32 21 -18 6 -73 22 -123 36 -49 15 -126 38 -170 51 -44 12 -177 52 -295 88
-118 35 -264 79 -325 97 -60 17 -137 40 -170 50 -33 10 -109 33 -170 50 -168
49 -272 80 -355 105 -41 12 -118 35 -170 50 -129 38 -310 92 -498 150 -99 30
-122 31 -122 8z"/>
<path d="M6819 4656 c-2 -3 -47 -16 -99 -30 -52 -13 -156 -41 -230 -61 -74
-21 -166 -45 -205 -55 -38 -11 -104 -28 -145 -39 -41 -11 -129 -34 -195 -51
-66 -18 -123 -35 -127 -38 -8 -8 -24 -339 -38 -772 -5 -173 -12 -359 -16 -412
-5 -89 -4 -98 12 -98 9 0 283 70 608 156 325 85 634 167 686 180 52 14 165 43
250 65 85 23 159 45 164 49 5 5 -8 38 -32 77 -36 62 -137 240 -468 828 -92
164 -117 201 -136 203 -13 2 -26 1 -29 -2z"/>
<path d="M7290 4655 c0 -5 75 -138 370 -660 84 -148 162 -287 173 -307 11 -21
26 -38 33 -38 12 0 177 42 474 121 63 16 156 41 205 54 50 13 144 38 210 55
66 18 156 41 200 52 44 11 86 23 93 27 17 10 -12 22 -383 166 -127 49 -146 57
-405 158 -175 69 -313 122 -420 163 -36 14 -80 31 -99 40 -18 8 -108 44 -200
79 -91 35 -183 71 -203 79 -40 17 -48 19 -48 11z"/>
<path d="M5239 3907 c-102 -127 -358 -447 -568 -710 -210 -263 -380 -481 -378
-484 6 -6 49 4 187 41 188 50 542 143 789 207 63 16 117 32 121 34 4 2 10 98
14 212 4 114 11 336 16 493 5 157 12 320 16 363 3 42 2 77 -2 77 -5 0 -93
-105 -195 -233z"/>
<path d="M9089 3596 c-3 -4 -74 -23 -354 -96 -38 -10 -124 -33 -190 -50 -66
-17 -151 -40 -190 -50 -38 -10 -124 -33 -190 -50 -66 -18 -148 -39 -181 -47
l-62 -14 -11 -77 c-6 -42 -18 -124 -25 -182 -17 -131 -50 -362 -76 -540 -11
-74 -24 -178 -30 -230 -6 -52 -13 -102 -15 -110 -3 -8 -13 -82 -24 -165 -33
-254 -86 -629 -97 -687 -3 -16 -1 -28 4 -28 5 0 51 68 103 150 120 192 79 127
550 870 190 301 347 549 379 600 91 145 276 437 351 555 49 77 89 143 89 148
0 7 -24 10 -31 3z"/>
<path d="M7440 3160 c-100 -27 -337 -90 -415 -110 -38 -10 -124 -33 -190 -50
-66 -17 -163 -43 -215 -57 -52 -13 -129 -34 -170 -45 -41 -11 -115 -30 -165
-43 -49 -13 -144 -38 -210 -55 -66 -18 -130 -35 -143 -38 -13 -2 -22 -10 -20
-17 2 -7 58 -78 125 -156 177 -209 465 -549 696 -824 358 -425 510 -600 521
-600 6 0 16 42 22 95 7 52 26 196 43 320 18 124 43 305 56 403 14 97 36 259
50 360 14 100 34 245 45 322 10 77 27 203 38 280 34 239 34 235 14 234 -9 -1
-46 -9 -82 -19z"/>
<path d="M5480 2646 c-3 -2 -68 -21 -145 -41 -77 -20 -173 -45 -212 -56 -170
-45 -224 -59 -335 -88 -65 -17 -171 -45 -235 -62 -65 -17 -131 -34 -148 -38
-55 -12 -67 -4 275 -183 69 -36 184 -96 255 -133 72 -37 171 -89 220 -115 50
-26 153 -80 230 -120 77 -40 181 -94 230 -120 50 -26 147 -77 218 -114 240
-125 382 -199 482 -251 55 -29 172 -90 260 -135 88 -45 184 -96 213 -112 107
-60 143 -106 -640 818 -577 683 -634 749 -649 752 -8 1 -17 1 -19 -2z"/>
</g>
</svg>
